# xmcd
#
# Track frame offsets: 
#        150
#        19325
#        40142
#        64090
#        78755
#        90540
#        113677
#        130027
#        178392
#        200615
#
# Disc length: 2768 seconds
#
# Revision: 0
# Processed by: cddbd v1.5.1PL0 Copyright (c) Steve Scherf et al.
# Submitted via: ExactAudioCopy v0.95a5
#
DISCID=7f0ace0a
DTITLE=The Kingsnakes - Foolin' Yourself
DYEAR=1999
DGENRE=Blues
TTITLE0=Poor Man's Prayer
TTITLE1=Big Bad Cruisin' Car
TTITLE2=Fast Track To Nowhere
TTITLE3=Just
TTITLE4=Step On Out
TTITLE5=Foolin' Yourself
TTITLE6=Swing Baby
TTITLE7=Crazy Lovin' Blues
TTITLE8=Walk Of Shame
TTITLE9=Danny Boy (Bonus Track)
EXTD=
EXTT0=
EXTT1=
EXTT2=
EXTT3=
EXTT4=
EXTT5=
EXTT6=
EXTT7=
EXTT8=
EXTT9=
PLAYORDER=
